<svg width="151" height="152" viewBox="0 0 151 152" fill="none" xmlns="http://www.w3.org/2000/svg">
<path fill-rule="evenodd" clip-rule="evenodd" d="M75.809 59.3103C86.4778 47.212 97.671 40.2988 109.756 40.2988C130.716 40.2988 146.001 55.4487 146.001 76.0206C146.001 96.5923 130.716 111.574 109.756 111.574C96.9144 111.574 85.9349 105.392 75.1593 93.1361C64.0637 105.421 54.0541 111.574 41.2126 111.574C20.2627 111.574 4.96729 96.5725 4.96729 76.0206C4.96729 55.4685 20.2627 40.2988 41.2126 40.2988C51.5667 40.2988 61.0317 44.7995 69.9419 53.163C66.9031 50.3539 63.599 47.847 60.0736 45.6807L45.9712 62.9936C51.3347 64.8502 56.0873 69.8077 61.1307 76.0696L61.6834 76.4646C61.6834 76.4646 75.9414 59.1122 75.7666 59.3097C75.3236 58.7757 74.8725 58.2494 74.4133 57.731C74.8799 58.2467 75.3452 58.7732 75.809 59.3103ZM27.1587 76.2082C27.1587 84.1094 32.4446 90.0345 41.3193 90.0345C48.7197 90.0345 55.3247 84.2772 61.5128 76.5932C54.8979 68.3367 48.8652 62.1944 41.3193 62.1944C32.4835 62.1944 27.1587 68.3077 27.1587 76.2082ZM105.074 89.4381C106.382 89.8271 107.719 90.0345 109.096 90.0345H109.135C118.01 90.0345 123.257 84.0797 123.257 76.2082C123.257 68.3367 117.971 62.1944 109.096 62.1944C101.502 62.1944 95.6821 67.9516 88.8928 76.2082C88.9006 76.2175 88.9085 76.2269 88.9163 76.2362L75.2046 93.1066C79.69 98.4491 85.0282 102.983 90.995 106.518L105.074 89.4381Z" fill="#484848"/>
<path d="M90.995 106.518L105.087 89.422C99.4229 87.724 94.2927 82.5783 88.9388 76.208L75.2046 93.1066C79.69 98.4491 85.0282 102.983 90.995 106.518Z" fill="#20A7C9"/>
<path d="M75.7666 59.3097C71.3004 53.926 65.9996 49.3222 60.0736 45.6807L45.9712 62.9936C51.3347 64.8502 56.0873 69.8077 61.1307 76.0696L61.6834 76.4646C61.6834 76.4646 75.9414 59.1122 75.7666 59.3097Z" fill="#20A7C9"/>
</svg>
